<?xml version="1.0" standalone="no"?><!DOCTYPE svg PUBLIC "-//W3C//DTD SVG 1.1//EN" "http://www.w3.org/Graphics/SVG/1.1/DTD/svg11.dtd"><svg t="1572435389641" class="icon" viewBox="0 0 1024 1024" version="1.1" xmlns="http://www.w3.org/2000/svg" p-id="2463" xmlns:xlink="http://www.w3.org/1999/xlink" width="200" height="200"><defs><style type="text/css"></style></defs><path d="M96 160h832c19.2 0 32 12.8 32 32s-12.8 32-32 32h-832c-19.2 0-32-12.8-32-32s12.8-32 32-32z m0 640h576c19.2 0 32 12.8 32 32s-12.8 32-32 32h-576c-19.2 0-32-12.8-32-32s12.8-32 32-32z m755.2-147.2l96 147.2c12.8 12.8 6.4 32-6.4 44.8-12.8 12.8-32 6.4-44.8-6.4l-96-147.2c-32 6.4-64 12.8-96 12.8-121.6 0-224-102.4-224-224S582.4 256 704 256s224 102.4 224 224c0 70.4-32 128-76.8 172.8zM704 640c89.6 0 160-70.4 160-160S793.6 320 704 320 544 390.4 544 480 614.4 640 704 640zM96 480h256c19.2 0 32 12.8 32 32s-12.8 32-32 32h-256c-19.2 0-32-12.8-32-32s12.8-32 32-32z" p-id="2464"></path></svg>